<mxfile host="app.diagrams.net" agent="Mozilla/5.0 (Windows NT 10.0; Win64; x64) AppleWebKit/537.36 (KHTML, like Gecko) Chrome/122.0.0.0 Safari/537.36" version="24.7.7">
  <diagram name="Page-1" id="o3AZW6OhAmah_6dSTa8o">
    <mxGraphModel dx="1247" dy="678" grid="1" gridSize="10" guides="1" tooltips="1" connect="1" arrows="1" fold="1" page="1" pageScale="1" pageWidth="850" pageHeight="1100" math="0" shadow="0">
      <root>
        <mxCell id="0" />
        <mxCell id="1" parent="0" />
        <mxCell id="meMKENjsHKv4A2wpyC38-2" value="&lt;font style=&quot;font-size: 24px;&quot;&gt;&lt;b&gt;Assignment #04&amp;nbsp;&lt;/b&gt;&lt;/font&gt;&lt;div&gt;&lt;font style=&quot;font-size: 24px;&quot;&gt;&lt;b&gt;Task #1a&lt;/b&gt;&lt;/font&gt;&lt;/div&gt;" style="text;html=1;align=center;verticalAlign=middle;resizable=0;points=[];autosize=1;strokeColor=none;fillColor=none;" vertex="1" parent="1">
          <mxGeometry x="320" width="210" height="70" as="geometry" />
        </mxCell>
        <mxCell id="meMKENjsHKv4A2wpyC38-10" style="rounded=0;orthogonalLoop=1;jettySize=auto;html=1;exitX=0;exitY=0;exitDx=0;exitDy=0;entryX=0.5;entryY=1;entryDx=0;entryDy=0;endArrow=none;endFill=0;" edge="1" parent="1" source="meMKENjsHKv4A2wpyC38-3" target="meMKENjsHKv4A2wpyC38-9">
          <mxGeometry relative="1" as="geometry" />
        </mxCell>
        <mxCell id="meMKENjsHKv4A2wpyC38-12" style="rounded=0;orthogonalLoop=1;jettySize=auto;html=1;exitX=1;exitY=0;exitDx=0;exitDy=0;entryX=0.5;entryY=1;entryDx=0;entryDy=0;endArrow=none;endFill=0;" edge="1" parent="1" source="meMKENjsHKv4A2wpyC38-3" target="meMKENjsHKv4A2wpyC38-11">
          <mxGeometry relative="1" as="geometry" />
        </mxCell>
        <mxCell id="meMKENjsHKv4A2wpyC38-15" style="rounded=0;orthogonalLoop=1;jettySize=auto;html=1;exitX=0.25;exitY=0;exitDx=0;exitDy=0;entryX=1;entryY=1;entryDx=0;entryDy=0;endArrow=none;endFill=0;" edge="1" parent="1" source="meMKENjsHKv4A2wpyC38-3" target="meMKENjsHKv4A2wpyC38-14">
          <mxGeometry relative="1" as="geometry" />
        </mxCell>
        <mxCell id="meMKENjsHKv4A2wpyC38-3" value="Person" style="rounded=0;whiteSpace=wrap;html=1;" vertex="1" parent="1">
          <mxGeometry x="370" y="190" width="80" height="30" as="geometry" />
        </mxCell>
        <mxCell id="meMKENjsHKv4A2wpyC38-32" style="rounded=0;orthogonalLoop=1;jettySize=auto;html=1;exitX=1;exitY=0.5;exitDx=0;exitDy=0;entryX=0.003;entryY=1.031;entryDx=0;entryDy=0;endArrow=none;endFill=0;entryPerimeter=0;" edge="1" parent="1" source="meMKENjsHKv4A2wpyC38-5" target="meMKENjsHKv4A2wpyC38-25">
          <mxGeometry relative="1" as="geometry" />
        </mxCell>
        <mxCell id="meMKENjsHKv4A2wpyC38-44" style="rounded=0;orthogonalLoop=1;jettySize=auto;html=1;exitX=0;exitY=1;exitDx=0;exitDy=0;entryX=1;entryY=0;entryDx=0;entryDy=0;endArrow=none;endFill=0;shape=link;" edge="1" parent="1" source="meMKENjsHKv4A2wpyC38-5" target="meMKENjsHKv4A2wpyC38-41">
          <mxGeometry relative="1" as="geometry" />
        </mxCell>
        <mxCell id="meMKENjsHKv4A2wpyC38-109" style="rounded=0;orthogonalLoop=1;jettySize=auto;html=1;exitX=0.25;exitY=0;exitDx=0;exitDy=0;entryX=1;entryY=0.5;entryDx=0;entryDy=0;endArrow=none;endFill=0;" edge="1" parent="1" source="meMKENjsHKv4A2wpyC38-5" target="meMKENjsHKv4A2wpyC38-108">
          <mxGeometry relative="1" as="geometry" />
        </mxCell>
        <mxCell id="meMKENjsHKv4A2wpyC38-5" value="Employee" style="rounded=0;whiteSpace=wrap;html=1;" vertex="1" parent="1">
          <mxGeometry x="370" y="350" width="80" height="30" as="geometry" />
        </mxCell>
        <mxCell id="meMKENjsHKv4A2wpyC38-7" style="edgeStyle=orthogonalEdgeStyle;rounded=0;orthogonalLoop=1;jettySize=auto;html=1;entryX=0.5;entryY=0;entryDx=0;entryDy=0;endArrow=none;endFill=0;" edge="1" parent="1" source="meMKENjsHKv4A2wpyC38-6" target="meMKENjsHKv4A2wpyC38-3">
          <mxGeometry relative="1" as="geometry" />
        </mxCell>
        <mxCell id="meMKENjsHKv4A2wpyC38-6" value="SSN" style="ellipse;whiteSpace=wrap;html=1;" vertex="1" parent="1">
          <mxGeometry x="380" y="100" width="60" height="30" as="geometry" />
        </mxCell>
        <mxCell id="meMKENjsHKv4A2wpyC38-9" value="DoB" style="ellipse;whiteSpace=wrap;html=1;" vertex="1" parent="1">
          <mxGeometry x="250" y="120" width="60" height="30" as="geometry" />
        </mxCell>
        <mxCell id="meMKENjsHKv4A2wpyC38-11" value="Email" style="ellipse;whiteSpace=wrap;html=1;" vertex="1" parent="1">
          <mxGeometry x="460" y="100" width="60" height="30" as="geometry" />
        </mxCell>
        <mxCell id="meMKENjsHKv4A2wpyC38-14" value="&lt;u&gt;PersonID&lt;/u&gt;" style="ellipse;whiteSpace=wrap;html=1;" vertex="1" parent="1">
          <mxGeometry x="310" y="100" width="60" height="30" as="geometry" />
        </mxCell>
        <mxCell id="meMKENjsHKv4A2wpyC38-17" style="edgeStyle=orthogonalEdgeStyle;rounded=0;orthogonalLoop=1;jettySize=auto;html=1;exitX=0.5;exitY=0;exitDx=0;exitDy=0;entryX=0.5;entryY=1;entryDx=0;entryDy=0;endArrow=none;endFill=0;" edge="1" parent="1" source="meMKENjsHKv4A2wpyC38-16" target="meMKENjsHKv4A2wpyC38-3">
          <mxGeometry relative="1" as="geometry" />
        </mxCell>
        <mxCell id="meMKENjsHKv4A2wpyC38-18" style="edgeStyle=orthogonalEdgeStyle;rounded=0;orthogonalLoop=1;jettySize=auto;html=1;entryX=0.5;entryY=0;entryDx=0;entryDy=0;shape=link;endArrow=block;" edge="1" parent="1" source="meMKENjsHKv4A2wpyC38-16" target="meMKENjsHKv4A2wpyC38-5">
          <mxGeometry relative="1" as="geometry" />
        </mxCell>
        <mxCell id="meMKENjsHKv4A2wpyC38-16" value="IS" style="rhombus;whiteSpace=wrap;html=1;" vertex="1" parent="1">
          <mxGeometry x="375" y="260" width="70" height="50" as="geometry" />
        </mxCell>
        <mxCell id="meMKENjsHKv4A2wpyC38-21" value="1" style="text;html=1;align=center;verticalAlign=middle;resizable=0;points=[];autosize=1;strokeColor=none;fillColor=none;" vertex="1" parent="1">
          <mxGeometry x="385" y="228" width="30" height="30" as="geometry" />
        </mxCell>
        <mxCell id="meMKENjsHKv4A2wpyC38-22" value="1" style="text;html=1;align=center;verticalAlign=middle;resizable=0;points=[];autosize=1;strokeColor=none;fillColor=none;" vertex="1" parent="1">
          <mxGeometry x="385" y="310" width="30" height="30" as="geometry" />
        </mxCell>
        <mxCell id="meMKENjsHKv4A2wpyC38-39" style="edgeStyle=orthogonalEdgeStyle;rounded=0;orthogonalLoop=1;jettySize=auto;html=1;exitX=1;exitY=0.5;exitDx=0;exitDy=0;entryX=0.5;entryY=0;entryDx=0;entryDy=0;endArrow=none;endFill=0;" edge="1" parent="1" source="meMKENjsHKv4A2wpyC38-25" target="meMKENjsHKv4A2wpyC38-28">
          <mxGeometry relative="1" as="geometry" />
        </mxCell>
        <mxCell id="meMKENjsHKv4A2wpyC38-40" style="edgeStyle=orthogonalEdgeStyle;rounded=0;orthogonalLoop=1;jettySize=auto;html=1;exitX=0.5;exitY=0;exitDx=0;exitDy=0;entryX=1;entryY=0.25;entryDx=0;entryDy=0;endArrow=none;endFill=0;" edge="1" parent="1" source="meMKENjsHKv4A2wpyC38-25" target="meMKENjsHKv4A2wpyC38-29">
          <mxGeometry relative="1" as="geometry">
            <Array as="points">
              <mxPoint x="610" y="375" />
              <mxPoint x="610" y="498" />
            </Array>
          </mxGeometry>
        </mxCell>
        <mxCell id="meMKENjsHKv4A2wpyC38-50" style="edgeStyle=orthogonalEdgeStyle;rounded=0;orthogonalLoop=1;jettySize=auto;html=1;exitX=0;exitY=0.25;exitDx=0;exitDy=0;entryX=1;entryY=0.5;entryDx=0;entryDy=0;endArrow=none;endFill=0;" edge="1" parent="1" source="meMKENjsHKv4A2wpyC38-25" target="meMKENjsHKv4A2wpyC38-49">
          <mxGeometry relative="1" as="geometry">
            <Array as="points">
              <mxPoint x="565" y="330" />
              <mxPoint x="630" y="330" />
              <mxPoint x="630" y="565" />
            </Array>
          </mxGeometry>
        </mxCell>
        <mxCell id="meMKENjsHKv4A2wpyC38-25" value="ISA" style="triangle;whiteSpace=wrap;html=1;direction=south;" vertex="1" parent="1">
          <mxGeometry x="520" y="350" width="60" height="50" as="geometry" />
        </mxCell>
        <mxCell id="meMKENjsHKv4A2wpyC38-60" style="edgeStyle=orthogonalEdgeStyle;rounded=0;orthogonalLoop=1;jettySize=auto;html=1;exitX=0.5;exitY=1;exitDx=0;exitDy=0;entryX=0.5;entryY=0;entryDx=0;entryDy=0;endArrow=none;endFill=0;" edge="1" parent="1" source="meMKENjsHKv4A2wpyC38-27" target="meMKENjsHKv4A2wpyC38-59">
          <mxGeometry relative="1" as="geometry" />
        </mxCell>
        <mxCell id="meMKENjsHKv4A2wpyC38-63" style="rounded=0;orthogonalLoop=1;jettySize=auto;html=1;exitX=0;exitY=0;exitDx=0;exitDy=0;entryX=1;entryY=1;entryDx=0;entryDy=0;endArrow=none;endFill=0;" edge="1" parent="1" source="meMKENjsHKv4A2wpyC38-27" target="meMKENjsHKv4A2wpyC38-62">
          <mxGeometry relative="1" as="geometry" />
        </mxCell>
        <mxCell id="meMKENjsHKv4A2wpyC38-66" style="rounded=0;orthogonalLoop=1;jettySize=auto;html=1;exitX=0;exitY=0.5;exitDx=0;exitDy=0;entryX=1;entryY=0.5;entryDx=0;entryDy=0;endArrow=none;endFill=0;" edge="1" parent="1" source="meMKENjsHKv4A2wpyC38-27" target="meMKENjsHKv4A2wpyC38-64">
          <mxGeometry relative="1" as="geometry" />
        </mxCell>
        <mxCell id="meMKENjsHKv4A2wpyC38-27" value="Team" style="rounded=0;whiteSpace=wrap;html=1;" vertex="1" parent="1">
          <mxGeometry x="275" y="470" width="80" height="30" as="geometry" />
        </mxCell>
        <mxCell id="meMKENjsHKv4A2wpyC38-53" style="rounded=0;orthogonalLoop=1;jettySize=auto;html=1;exitX=0;exitY=0.5;exitDx=0;exitDy=0;entryX=0.5;entryY=0;entryDx=0;entryDy=0;endArrow=none;endFill=0;shape=link;" edge="1" parent="1" source="meMKENjsHKv4A2wpyC38-28" target="meMKENjsHKv4A2wpyC38-51">
          <mxGeometry relative="1" as="geometry" />
        </mxCell>
        <mxCell id="meMKENjsHKv4A2wpyC38-28" value="Feild" style="rounded=0;whiteSpace=wrap;html=1;" vertex="1" parent="1">
          <mxGeometry x="510" y="440" width="80" height="30" as="geometry" />
        </mxCell>
        <mxCell id="meMKENjsHKv4A2wpyC38-54" style="rounded=0;orthogonalLoop=1;jettySize=auto;html=1;exitX=0;exitY=0.5;exitDx=0;exitDy=0;entryX=0.5;entryY=1;entryDx=0;entryDy=0;endArrow=none;endFill=0;" edge="1" parent="1" source="meMKENjsHKv4A2wpyC38-29" target="meMKENjsHKv4A2wpyC38-51">
          <mxGeometry relative="1" as="geometry" />
        </mxCell>
        <mxCell id="meMKENjsHKv4A2wpyC38-29" value="Desk" style="rounded=0;whiteSpace=wrap;html=1;" vertex="1" parent="1">
          <mxGeometry x="510" y="490" width="80" height="30" as="geometry" />
        </mxCell>
        <mxCell id="meMKENjsHKv4A2wpyC38-45" style="rounded=0;orthogonalLoop=1;jettySize=auto;html=1;exitX=0.5;exitY=1;exitDx=0;exitDy=0;entryX=0.5;entryY=0;entryDx=0;entryDy=0;endArrow=none;endFill=0;shape=link;" edge="1" parent="1" source="meMKENjsHKv4A2wpyC38-41" target="meMKENjsHKv4A2wpyC38-27">
          <mxGeometry relative="1" as="geometry" />
        </mxCell>
        <mxCell id="meMKENjsHKv4A2wpyC38-41" value="Has" style="rhombus;whiteSpace=wrap;html=1;" vertex="1" parent="1">
          <mxGeometry x="280" y="390" width="70" height="50" as="geometry" />
        </mxCell>
        <mxCell id="meMKENjsHKv4A2wpyC38-43" style="rounded=0;orthogonalLoop=1;jettySize=auto;html=1;exitX=0.5;exitY=1;exitDx=0;exitDy=0;entryX=0;entryY=0;entryDx=0;entryDy=0;endArrow=none;endFill=0;" edge="1" parent="1" source="meMKENjsHKv4A2wpyC38-42" target="meMKENjsHKv4A2wpyC38-28">
          <mxGeometry relative="1" as="geometry" />
        </mxCell>
        <mxCell id="meMKENjsHKv4A2wpyC38-42" value="TeamID" style="ellipse;whiteSpace=wrap;html=1;" vertex="1" parent="1">
          <mxGeometry x="480" y="390" width="60" height="30" as="geometry" />
        </mxCell>
        <mxCell id="meMKENjsHKv4A2wpyC38-55" style="rounded=0;orthogonalLoop=1;jettySize=auto;html=1;exitX=0;exitY=0.5;exitDx=0;exitDy=0;entryX=1;entryY=0.5;entryDx=0;entryDy=0;endArrow=none;endFill=0;" edge="1" parent="1" source="meMKENjsHKv4A2wpyC38-49" target="meMKENjsHKv4A2wpyC38-52">
          <mxGeometry relative="1" as="geometry" />
        </mxCell>
        <mxCell id="meMKENjsHKv4A2wpyC38-49" value="Manager" style="rounded=0;whiteSpace=wrap;html=1;" vertex="1" parent="1">
          <mxGeometry x="510" y="550" width="80" height="30" as="geometry" />
        </mxCell>
        <mxCell id="meMKENjsHKv4A2wpyC38-57" style="edgeStyle=orthogonalEdgeStyle;rounded=0;orthogonalLoop=1;jettySize=auto;html=1;exitX=0;exitY=0.5;exitDx=0;exitDy=0;entryX=1;entryY=0.5;entryDx=0;entryDy=0;endArrow=none;endFill=0;" edge="1" parent="1" source="meMKENjsHKv4A2wpyC38-51" target="meMKENjsHKv4A2wpyC38-27">
          <mxGeometry relative="1" as="geometry" />
        </mxCell>
        <mxCell id="meMKENjsHKv4A2wpyC38-51" value="Have" style="rhombus;whiteSpace=wrap;html=1;" vertex="1" parent="1">
          <mxGeometry x="410" y="470" width="50" height="30" as="geometry" />
        </mxCell>
        <mxCell id="meMKENjsHKv4A2wpyC38-56" style="rounded=0;orthogonalLoop=1;jettySize=auto;html=1;exitX=0;exitY=0.5;exitDx=0;exitDy=0;entryX=1;entryY=1;entryDx=0;entryDy=0;endArrow=none;endFill=0;shape=link;" edge="1" parent="1" source="meMKENjsHKv4A2wpyC38-52" target="meMKENjsHKv4A2wpyC38-27">
          <mxGeometry relative="1" as="geometry" />
        </mxCell>
        <mxCell id="meMKENjsHKv4A2wpyC38-52" value="Manage" style="rhombus;whiteSpace=wrap;html=1;" vertex="1" parent="1">
          <mxGeometry x="405" y="547.5" width="60" height="35" as="geometry" />
        </mxCell>
        <mxCell id="meMKENjsHKv4A2wpyC38-61" style="edgeStyle=orthogonalEdgeStyle;rounded=0;orthogonalLoop=1;jettySize=auto;html=1;exitX=0.5;exitY=0;exitDx=0;exitDy=0;entryX=0.5;entryY=1;entryDx=0;entryDy=0;endArrow=none;endFill=0;shape=link;" edge="1" parent="1" source="meMKENjsHKv4A2wpyC38-58" target="meMKENjsHKv4A2wpyC38-59">
          <mxGeometry relative="1" as="geometry" />
        </mxCell>
        <mxCell id="meMKENjsHKv4A2wpyC38-93" style="rounded=0;orthogonalLoop=1;jettySize=auto;html=1;exitX=0.5;exitY=1;exitDx=0;exitDy=0;entryX=0.5;entryY=0;entryDx=0;entryDy=0;endArrow=none;endFill=0;" edge="1" parent="1" source="meMKENjsHKv4A2wpyC38-58" target="meMKENjsHKv4A2wpyC38-86">
          <mxGeometry relative="1" as="geometry" />
        </mxCell>
        <mxCell id="meMKENjsHKv4A2wpyC38-94" style="rounded=0;orthogonalLoop=1;jettySize=auto;html=1;exitX=1;exitY=1;exitDx=0;exitDy=0;entryX=0.5;entryY=0;entryDx=0;entryDy=0;endArrow=none;endFill=0;" edge="1" parent="1" source="meMKENjsHKv4A2wpyC38-58" target="meMKENjsHKv4A2wpyC38-87">
          <mxGeometry relative="1" as="geometry" />
        </mxCell>
        <mxCell id="meMKENjsHKv4A2wpyC38-95" style="rounded=0;orthogonalLoop=1;jettySize=auto;html=1;exitX=1;exitY=0.5;exitDx=0;exitDy=0;entryX=0.5;entryY=0;entryDx=0;entryDy=0;endArrow=none;endFill=0;" edge="1" parent="1" source="meMKENjsHKv4A2wpyC38-58" target="meMKENjsHKv4A2wpyC38-89">
          <mxGeometry relative="1" as="geometry" />
        </mxCell>
        <mxCell id="meMKENjsHKv4A2wpyC38-58" value="Projects" style="rounded=0;whiteSpace=wrap;html=1;" vertex="1" parent="1">
          <mxGeometry x="275" y="620" width="80" height="30" as="geometry" />
        </mxCell>
        <mxCell id="meMKENjsHKv4A2wpyC38-59" value="Include" style="rhombus;whiteSpace=wrap;html=1;" vertex="1" parent="1">
          <mxGeometry x="290" y="550" width="50" height="30" as="geometry" />
        </mxCell>
        <mxCell id="meMKENjsHKv4A2wpyC38-62" value="&lt;u&gt;TeamID&lt;/u&gt;" style="ellipse;whiteSpace=wrap;html=1;" vertex="1" parent="1">
          <mxGeometry x="210" y="410" width="60" height="30" as="geometry" />
        </mxCell>
        <mxCell id="meMKENjsHKv4A2wpyC38-64" value="Total-Members" style="ellipse;whiteSpace=wrap;html=1;" vertex="1" parent="1">
          <mxGeometry x="160" y="440" width="80" height="40" as="geometry" />
        </mxCell>
        <mxCell id="meMKENjsHKv4A2wpyC38-69" style="rounded=0;orthogonalLoop=1;jettySize=auto;html=1;exitX=1;exitY=0.5;exitDx=0;exitDy=0;entryX=0;entryY=0.75;entryDx=0;entryDy=0;endArrow=none;endFill=0;" edge="1" parent="1" source="meMKENjsHKv4A2wpyC38-67" target="meMKENjsHKv4A2wpyC38-27">
          <mxGeometry relative="1" as="geometry" />
        </mxCell>
        <mxCell id="meMKENjsHKv4A2wpyC38-67" value="Rating" style="ellipse;whiteSpace=wrap;html=1;" vertex="1" parent="1">
          <mxGeometry x="155" y="490" width="60" height="30" as="geometry" />
        </mxCell>
        <mxCell id="meMKENjsHKv4A2wpyC38-70" style="rounded=0;orthogonalLoop=1;jettySize=auto;html=1;exitX=1;exitY=0.5;exitDx=0;exitDy=0;endArrow=none;endFill=0;" edge="1" parent="1" source="meMKENjsHKv4A2wpyC38-68">
          <mxGeometry relative="1" as="geometry">
            <mxPoint x="280" y="500" as="targetPoint" />
          </mxGeometry>
        </mxCell>
        <mxCell id="meMKENjsHKv4A2wpyC38-68" value="CreateDate" style="ellipse;whiteSpace=wrap;html=1;" vertex="1" parent="1">
          <mxGeometry x="155" y="530" width="70" height="37.5" as="geometry" />
        </mxCell>
        <mxCell id="meMKENjsHKv4A2wpyC38-72" value="1" style="text;html=1;align=center;verticalAlign=middle;resizable=0;points=[];autosize=1;strokeColor=none;fillColor=none;" vertex="1" parent="1">
          <mxGeometry x="320" y="438" width="30" height="30" as="geometry" />
        </mxCell>
        <mxCell id="meMKENjsHKv4A2wpyC38-73" value="M" style="text;html=1;align=center;verticalAlign=middle;resizable=0;points=[];autosize=1;strokeColor=none;fillColor=none;" vertex="1" parent="1">
          <mxGeometry x="350" y="390" width="30" height="30" as="geometry" />
        </mxCell>
        <mxCell id="meMKENjsHKv4A2wpyC38-78" value="1" style="text;html=1;align=center;verticalAlign=middle;resizable=0;points=[];autosize=1;strokeColor=none;fillColor=none;" vertex="1" parent="1">
          <mxGeometry x="380" y="517.5" width="30" height="30" as="geometry" />
        </mxCell>
        <mxCell id="meMKENjsHKv4A2wpyC38-79" value="1" style="text;html=1;align=center;verticalAlign=middle;resizable=0;points=[];autosize=1;strokeColor=none;fillColor=none;" vertex="1" parent="1">
          <mxGeometry x="465" y="560" width="30" height="30" as="geometry" />
        </mxCell>
        <mxCell id="meMKENjsHKv4A2wpyC38-80" value="1" style="text;html=1;align=center;verticalAlign=middle;resizable=0;points=[];autosize=1;strokeColor=none;fillColor=none;" vertex="1" parent="1">
          <mxGeometry x="375" y="458" width="30" height="30" as="geometry" />
        </mxCell>
        <mxCell id="meMKENjsHKv4A2wpyC38-81" value="M" style="text;html=1;align=center;verticalAlign=middle;resizable=0;points=[];autosize=1;strokeColor=none;fillColor=none;" vertex="1" parent="1">
          <mxGeometry x="460" y="438" width="30" height="30" as="geometry" />
        </mxCell>
        <mxCell id="meMKENjsHKv4A2wpyC38-82" value="M" style="text;html=1;align=center;verticalAlign=middle;resizable=0;points=[];autosize=1;strokeColor=none;fillColor=none;" vertex="1" parent="1">
          <mxGeometry x="460" y="500" width="30" height="30" as="geometry" />
        </mxCell>
        <mxCell id="meMKENjsHKv4A2wpyC38-83" value="M" style="text;html=1;align=center;verticalAlign=middle;resizable=0;points=[];autosize=1;strokeColor=none;fillColor=none;" vertex="1" parent="1">
          <mxGeometry x="280" y="517.5" width="30" height="30" as="geometry" />
        </mxCell>
        <mxCell id="meMKENjsHKv4A2wpyC38-84" value="N" style="text;html=1;align=center;verticalAlign=middle;resizable=0;points=[];autosize=1;strokeColor=none;fillColor=none;" vertex="1" parent="1">
          <mxGeometry x="280" y="582.5" width="30" height="30" as="geometry" />
        </mxCell>
        <mxCell id="meMKENjsHKv4A2wpyC38-86" value="&lt;u&gt;ProjID&lt;/u&gt;" style="ellipse;whiteSpace=wrap;html=1;" vertex="1" parent="1">
          <mxGeometry x="285" y="690" width="60" height="30" as="geometry" />
        </mxCell>
        <mxCell id="meMKENjsHKv4A2wpyC38-87" value="Buyer" style="ellipse;whiteSpace=wrap;html=1;" vertex="1" parent="1">
          <mxGeometry x="345" y="680" width="60" height="30" as="geometry" />
        </mxCell>
        <mxCell id="meMKENjsHKv4A2wpyC38-88" value="Deadline" style="ellipse;whiteSpace=wrap;html=1;" vertex="1" parent="1">
          <mxGeometry x="225" y="680" width="60" height="30" as="geometry" />
        </mxCell>
        <mxCell id="meMKENjsHKv4A2wpyC38-89" value="TeamID" style="ellipse;whiteSpace=wrap;html=1;" vertex="1" parent="1">
          <mxGeometry x="395" y="660" width="60" height="30" as="geometry" />
        </mxCell>
        <mxCell id="meMKENjsHKv4A2wpyC38-90" value="Budget" style="ellipse;whiteSpace=wrap;html=1;" vertex="1" parent="1">
          <mxGeometry x="170" y="660" width="60" height="30" as="geometry" />
        </mxCell>
        <mxCell id="meMKENjsHKv4A2wpyC38-91" style="rounded=0;orthogonalLoop=1;jettySize=auto;html=1;exitX=0;exitY=0.5;exitDx=0;exitDy=0;entryX=1.007;entryY=0.27;entryDx=0;entryDy=0;entryPerimeter=0;endArrow=none;endFill=0;" edge="1" parent="1" source="meMKENjsHKv4A2wpyC38-58" target="meMKENjsHKv4A2wpyC38-90">
          <mxGeometry relative="1" as="geometry" />
        </mxCell>
        <mxCell id="meMKENjsHKv4A2wpyC38-92" style="rounded=0;orthogonalLoop=1;jettySize=auto;html=1;exitX=0;exitY=1;exitDx=0;exitDy=0;entryX=0.67;entryY=0.038;entryDx=0;entryDy=0;entryPerimeter=0;endArrow=none;endFill=0;" edge="1" parent="1" source="meMKENjsHKv4A2wpyC38-58" target="meMKENjsHKv4A2wpyC38-88">
          <mxGeometry relative="1" as="geometry" />
        </mxCell>
        <mxCell id="meMKENjsHKv4A2wpyC38-96" value="&lt;u&gt;ManagerID&lt;/u&gt;" style="ellipse;whiteSpace=wrap;html=1;" vertex="1" parent="1">
          <mxGeometry x="510" y="630" width="70" height="30" as="geometry" />
        </mxCell>
        <mxCell id="meMKENjsHKv4A2wpyC38-97" style="rounded=0;orthogonalLoop=1;jettySize=auto;html=1;exitX=0.5;exitY=0;exitDx=0;exitDy=0;entryX=0.407;entryY=1.009;entryDx=0;entryDy=0;entryPerimeter=0;endArrow=none;endFill=0;" edge="1" parent="1" source="meMKENjsHKv4A2wpyC38-96" target="meMKENjsHKv4A2wpyC38-49">
          <mxGeometry relative="1" as="geometry" />
        </mxCell>
        <mxCell id="meMKENjsHKv4A2wpyC38-100" style="rounded=0;orthogonalLoop=1;jettySize=auto;html=1;exitX=1;exitY=0.5;exitDx=0;exitDy=0;entryX=0;entryY=0;entryDx=0;entryDy=0;endArrow=none;endFill=0;" edge="1" parent="1" source="meMKENjsHKv4A2wpyC38-99" target="meMKENjsHKv4A2wpyC38-5">
          <mxGeometry relative="1" as="geometry" />
        </mxCell>
        <mxCell id="meMKENjsHKv4A2wpyC38-99" value="&lt;u&gt;EmployeeID&lt;/u&gt;" style="ellipse;whiteSpace=wrap;html=1;" vertex="1" parent="1">
          <mxGeometry x="280" y="310" width="70" height="30" as="geometry" />
        </mxCell>
        <mxCell id="meMKENjsHKv4A2wpyC38-105" style="rounded=0;orthogonalLoop=1;jettySize=auto;html=1;exitX=1;exitY=0.5;exitDx=0;exitDy=0;entryX=0;entryY=0.5;entryDx=0;entryDy=0;endArrow=none;endFill=0;" edge="1" parent="1" source="meMKENjsHKv4A2wpyC38-102" target="meMKENjsHKv4A2wpyC38-5">
          <mxGeometry relative="1" as="geometry" />
        </mxCell>
        <mxCell id="meMKENjsHKv4A2wpyC38-102" value="PersonID" style="ellipse;whiteSpace=wrap;html=1;" vertex="1" parent="1">
          <mxGeometry x="240" y="340" width="60" height="30" as="geometry" />
        </mxCell>
        <mxCell id="meMKENjsHKv4A2wpyC38-106" style="rounded=0;orthogonalLoop=1;jettySize=auto;html=1;exitX=0;exitY=0.5;exitDx=0;exitDy=0;entryX=0.75;entryY=0;entryDx=0;entryDy=0;endArrow=none;endFill=0;" edge="1" parent="1" source="meMKENjsHKv4A2wpyC38-103" target="meMKENjsHKv4A2wpyC38-5">
          <mxGeometry relative="1" as="geometry" />
        </mxCell>
        <mxCell id="meMKENjsHKv4A2wpyC38-103" value="HireDate" style="ellipse;whiteSpace=wrap;html=1;" vertex="1" parent="1">
          <mxGeometry x="450" y="280" width="60" height="30" as="geometry" />
        </mxCell>
        <mxCell id="meMKENjsHKv4A2wpyC38-107" style="rounded=0;orthogonalLoop=1;jettySize=auto;html=1;exitX=0;exitY=0.5;exitDx=0;exitDy=0;entryX=1;entryY=0;entryDx=0;entryDy=0;endArrow=none;endFill=0;" edge="1" parent="1" source="meMKENjsHKv4A2wpyC38-104" target="meMKENjsHKv4A2wpyC38-5">
          <mxGeometry relative="1" as="geometry" />
        </mxCell>
        <mxCell id="meMKENjsHKv4A2wpyC38-104" value="Salary" style="ellipse;whiteSpace=wrap;html=1;" vertex="1" parent="1">
          <mxGeometry x="480" y="310" width="60" height="30" as="geometry" />
        </mxCell>
        <mxCell id="meMKENjsHKv4A2wpyC38-108" value="Position" style="ellipse;whiteSpace=wrap;html=1;" vertex="1" parent="1">
          <mxGeometry x="300" y="280" width="60" height="30" as="geometry" />
        </mxCell>
      </root>
    </mxGraphModel>
  </diagram>
</mxfile>
